<svg width="987" height="237" viewBox="0 0 987 237" fill="none" xmlns="http://www.w3.org/2000/svg">
<g clip-path="url(#clip0)">
<circle cx="128" cy="117" r="105" fill="#374151" stroke="#9FA6B2" stroke-width="8"/>
<line x1="90" y1="45" x2="151" y2="45" stroke="#38A169" stroke-width="14" stroke-linecap="round"/>
<line x1="90" y1="125" x2="151" y2="125" stroke="#38A169" stroke-width="14" stroke-linecap="round"/>
<line x1="90" y1="65" x2="105" y2="65" stroke="#E53E3E" stroke-width="14" stroke-linecap="round"/>
<line x1="165" y1="65" x2="180" y2="65" stroke="#38A169" stroke-width="14" stroke-linecap="round"/>
<line x1="90" y1="85" x2="105" y2="85" stroke="#E53E3E" stroke-width="14" stroke-linecap="round"/>
<line x1="177" y1="85" x2="192" y2="85" stroke="#38A169" stroke-width="14" stroke-linecap="round"/>
<line x1="90" y1="105" x2="105" y2="105" stroke="#E53E3E" stroke-width="14" stroke-linecap="round"/>
<line x1="90" y1="145" x2="105" y2="145" stroke="#38A169" stroke-width="14" stroke-linecap="round"/>
<line x1="90" y1="165" x2="105" y2="165" stroke="#38A169" stroke-width="14" stroke-linecap="round"/>
<line x1="90" y1="185" x2="105" y2="185" stroke="#38A169" stroke-width="14" stroke-linecap="round"/>
<line x1="165" y1="105" x2="180" y2="105" stroke="#38A169" stroke-width="14" stroke-linecap="round"/>
<path d="M314.102 169H336.244V135.045H354.858C378.943 135.045 392.955 120.676 392.955 99.7614C392.955 78.9489 379.199 64.2727 355.42 64.2727H314.102V169ZM336.244 117.301V82.375H351.176C363.96 82.375 370.148 89.3295 370.148 99.7614C370.148 110.142 363.96 117.301 351.278 117.301H336.244ZM457.297 135.557C457.348 146.091 450.138 151.614 442.314 151.614C434.081 151.614 428.763 145.835 428.712 136.58V90.4545H406.928V140.466C406.979 158.824 417.717 170.023 433.518 170.023C445.331 170.023 453.82 163.938 457.348 154.733H458.166V169H479.081V90.4545H457.297V135.557ZM518.29 64.2727H496.506V169H518.29V64.2727ZM601.092 112.852C599.149 98.3807 587.49 89.4318 567.649 89.4318C547.553 89.4318 534.308 98.7386 534.359 113.875C534.308 125.636 541.723 133.256 557.064 136.324L570.666 139.034C577.518 140.415 580.638 142.92 580.74 146.858C580.638 151.511 575.575 154.835 567.956 154.835C560.183 154.835 555.018 151.511 553.689 145.119L532.263 146.244C534.308 161.278 547.092 170.534 567.905 170.534C588.257 170.534 602.831 160.153 602.882 144.659C602.831 133.307 595.416 126.506 580.178 123.386L565.962 120.523C558.649 118.938 555.939 116.432 555.99 112.648C555.939 107.943 561.257 104.875 568.007 104.875C575.575 104.875 580.075 109.017 581.149 114.08L601.092 112.852ZM638.997 170.483C650.605 170.483 658.122 165.42 661.957 158.108H662.571V169H683.23V116.023C683.23 97.3068 667.378 89.4318 649.889 89.4318C631.071 89.4318 618.696 98.4318 615.679 112.75L635.827 114.386C637.31 109.17 641.963 105.335 649.787 105.335C657.202 105.335 661.446 109.068 661.446 115.511V115.818C661.446 120.881 656.077 121.545 642.423 122.875C626.878 124.307 612.918 129.523 612.918 147.062C612.918 162.608 624.014 170.483 638.997 170.483ZM645.236 155.449C638.537 155.449 633.73 152.33 633.73 146.347C633.73 140.21 638.793 137.193 646.463 136.119C651.219 135.455 658.991 134.33 661.599 132.591V140.926C661.599 149.159 654.798 155.449 645.236 155.449ZM741.909 90.4545H727.131V71.6364H705.347V90.4545H694.608V106.818H705.347V147.727C705.244 163.119 715.727 170.739 731.528 170.074C737.153 169.869 741.142 168.744 743.341 168.028L739.915 151.818C738.841 152.023 736.54 152.534 734.494 152.534C730.148 152.534 727.131 150.898 727.131 144.864V106.818H741.909V90.4545ZM756.099 169H777.884V90.4545H756.099V169ZM767.043 80.3295C773.537 80.3295 778.855 75.3693 778.855 69.2841C778.855 63.25 773.537 58.2898 767.043 58.2898C760.599 58.2898 755.281 63.25 755.281 69.2841C755.281 75.3693 760.599 80.3295 767.043 80.3295ZM830.822 170.534C854.652 170.534 869.482 154.222 869.482 130.034C869.482 105.693 854.652 89.4318 830.822 89.4318C806.993 89.4318 792.163 105.693 792.163 130.034C792.163 154.222 806.993 170.534 830.822 170.534ZM830.925 153.659C819.93 153.659 814.305 143.585 814.305 129.881C814.305 116.176 819.93 106.051 830.925 106.051C841.714 106.051 847.339 116.176 847.339 129.881C847.339 143.585 841.714 153.659 830.925 153.659ZM905.43 123.591C905.482 113.466 911.516 107.534 920.311 107.534C929.055 107.534 934.322 113.261 934.271 122.875V169H956.055V118.989C956.055 100.682 945.317 89.4318 928.953 89.4318C917.294 89.4318 908.857 95.1591 905.328 104.312H904.408V90.4545H883.646V169H905.43V123.591Z" fill="white"/>
</g>
<defs>
<clipPath id="clip0">
<path d="M0 0H987V237H0V0Z" fill="white"/>
</clipPath>
</defs>
</svg>
