<svg width="957" height="240" viewBox="0 0 957 240" fill="none" xmlns="http://www.w3.org/2000/svg">
<line x1="41" y1="55" x2="199" y2="55" stroke="#6875F5" stroke-width="42" stroke-linecap="round"/>
<line x1="41" y1="185" x2="199" y2="185" stroke="#6875F5" stroke-width="42" stroke-linecap="round"/>
<line x1="41" y1="120" x2="199" y2="120" stroke="#6875F5" stroke-width="42" stroke-linecap="round"/>
<path d="M305.693 172H327.477V93.4545H305.693V172ZM316.636 83.3295C323.131 83.3295 328.449 78.3693 328.449 72.2841C328.449 66.25 323.131 61.2898 316.636 61.2898C310.193 61.2898 304.875 66.25 304.875 72.2841C304.875 78.3693 310.193 83.3295 316.636 83.3295ZM366.712 126.591C366.763 116.466 372.797 110.534 381.592 110.534C390.337 110.534 395.604 116.261 395.553 125.875V172H417.337V121.989C417.337 103.682 406.598 92.4318 390.234 92.4318C378.575 92.4318 370.138 98.1591 366.609 107.312H365.689V93.4545H344.928V172H366.712V126.591ZM476.744 93.4545H461.148V88.1875C461.148 82.8693 463.295 79.75 469.688 79.75C472.295 79.75 474.955 80.3125 476.693 80.875L480.528 64.5114C477.818 63.6932 471.835 62.3636 465.136 62.3636C450.358 62.3636 439.364 70.6989 439.364 87.7784V93.4545H428.267V109.818H439.364V172H461.148V109.818H476.744V93.4545ZM490.053 172H511.837V93.4545H490.053V172ZM500.996 83.3295C507.49 83.3295 512.808 78.3693 512.808 72.2841C512.808 66.25 507.49 61.2898 500.996 61.2898C494.553 61.2898 489.234 66.25 489.234 72.2841C489.234 78.3693 494.553 83.3295 500.996 83.3295ZM551.071 126.591C551.122 116.466 557.156 110.534 565.952 110.534C574.696 110.534 579.963 116.261 579.912 125.875V172H601.696V121.989C601.696 103.682 590.957 92.4318 574.594 92.4318C562.935 92.4318 554.497 98.1591 550.969 107.312H550.048V93.4545H529.287V172H551.071V126.591ZM618.865 172H640.649V93.4545H618.865V172ZM629.808 83.3295C636.303 83.3295 641.621 78.3693 641.621 72.2841C641.621 66.25 636.303 61.2898 629.808 61.2898C623.365 61.2898 618.047 66.25 618.047 72.2841C618.047 78.3693 623.365 83.3295 629.808 83.3295ZM699.878 93.4545H685.099V74.6364H663.315V93.4545H652.577V109.818H663.315V150.727C663.213 166.119 673.696 173.739 689.497 173.074C695.122 172.869 699.111 171.744 701.31 171.028L697.884 154.818C696.81 155.023 694.509 155.534 692.463 155.534C688.116 155.534 685.099 153.898 685.099 147.864V109.818H699.878V93.4545ZM714.068 172H735.852V93.4545H714.068V172ZM725.011 83.3295C731.506 83.3295 736.824 78.3693 736.824 72.2841C736.824 66.25 731.506 61.2898 725.011 61.2898C718.568 61.2898 713.25 66.25 713.25 72.2841C713.25 78.3693 718.568 83.3295 725.011 83.3295ZM788.791 173.534C809.706 173.534 822.848 161.261 823.871 143.21H803.314C802.036 151.597 796.513 156.301 789.047 156.301C778.871 156.301 772.274 147.761 772.274 132.727C772.274 117.898 778.922 109.409 789.047 109.409C797.024 109.409 802.138 114.676 803.314 122.5H823.871C822.95 104.347 809.195 92.4318 788.689 92.4318C764.859 92.4318 750.132 108.949 750.132 133.034C750.132 156.915 764.604 173.534 788.791 173.534Z" fill="white"/>
</svg>
